HIERARCHY
ROOT Hips
{
	OFFSET 0.000000 97.167313 0.000000
	CHANNELS 6 Xposition Yposition Zposition Xrotation Yrotation Zrotation
	JOINT Spine
	{
		OFFSET 0.000000 13.784798 0.064400
		CHANNELS 3 Xrotation Yrotation Zrotation
		JOINT Spine1
		{
			OFFSET 0.000000 12.037903 0.404700
			CHANNELS 3 Xrotation Yrotation Zrotation
			JOINT Spine2
			{
				OFFSET 0.000000 17.795601 0.420200
				CHANNELS 3 Xrotation Yrotation Zrotation
				JOINT Neck
				{
					OFFSET 0.000000 39.131302 11.954600
					CHANNELS 3 Xrotation Yrotation Zrotation
					JOINT Head
					{
						OFFSET 0.000000 14.456192 15.627699
						CHANNELS 3 Xrotation Yrotation Zrotation
						JOINT HeadTop_End
						{
							OFFSET 0.000000 15.703506 7.603401
							CHANNELS 3 Xrotation Yrotation Zrotation
							End Site
							{
								OFFSET 0.000000 17.447403 0.000000
							}
						}
					}
				}
				JOINT LeftShoulder
				{
					OFFSET 17.399500 24.608795 1.168800
					CHANNELS 3 Xrotation Yrotation Zrotation
					JOINT LeftArm
					{
						OFFSET 18.980635 5.765305 1.818600
						CHANNELS 3 Xrotation Yrotation Zrotation
						JOINT LeftForeArm
						{
							OFFSET 49.290169 0.000000 0.000000
							CHANNELS 3 Xrotation Yrotation Zrotation
							JOINT LeftHand
							{
								OFFSET 31.562012 0.000000 0.000000
								CHANNELS 3 Xrotation Yrotation Zrotation
								JOINT LeftHandThumb1
								{
									OFFSET 6.133995 -4.388519 7.076070
									CHANNELS 3 Xrotation Yrotation Zrotation
									JOINT LeftHandThumb2
									{
										OFFSET 6.037666 -3.485840 3.485847
										CHANNELS 3 Xrotation Yrotation Zrotation
										JOINT LeftHandThumb3
										{
											OFFSET 6.496506 -3.750763 3.750761
											CHANNELS 3 Xrotation Yrotation Zrotation
											JOINT LeftHandThumb4
											{
												OFFSET 5.616882 -3.242905 3.242910
												CHANNELS 3 Xrotation Yrotation Zrotation
												End Site
												{
													OFFSET -1.254608 7.132141 0.375429
												}
											}
										}
									}
								}
								JOINT LeftHandPinky1
								{
									OFFSET 18.920792 -0.453171 -11.426712
									CHANNELS 3 Xrotation Yrotation Zrotation
									JOINT LeftHandPinky2
									{
										OFFSET 4.919586 0.000000 0.000000
										CHANNELS 3 Xrotation Yrotation Zrotation
										JOINT LeftHandPinky3
										{
											OFFSET 5.233047 0.000000 0.000000
											CHANNELS 3 Xrotation Yrotation Zrotation
											JOINT LeftHandPinky4
											{
												OFFSET 5.571716 0.000000 0.000000
												CHANNELS 3 Xrotation Yrotation Zrotation
												End Site
												{
													OFFSET -3.459808 4.342407 -0.466164
												}
											}
										}
									}
								}
								JOINT LeftHandRing1
								{
									OFFSET 22.726120 -0.094986 -6.500475
									CHANNELS 3 Xrotation Yrotation Zrotation
									JOINT LeftHandRing2
									{
										OFFSET 6.408615 0.000000 0.000000
										CHANNELS 3 Xrotation Yrotation Zrotation
										JOINT LeftHandRing3
										{
											OFFSET 6.150223 0.000000 0.000000
											CHANNELS 3 Xrotation Yrotation Zrotation
											JOINT LeftHandRing4
											{
												OFFSET 6.145386 0.000000 0.000000
												CHANNELS 3 Xrotation Yrotation Zrotation
												End Site
												{
													OFFSET -3.671402 4.923981 -0.202372
												}
											}
										}
									}
								}
								JOINT LeftHandMiddle1
								{
									OFFSET 23.373947 0.000000 0.000001
									CHANNELS 3 Xrotation Yrotation Zrotation
									JOINT LeftHandMiddle2
									{
										OFFSET 6.996567 0.000000 0.000000
										CHANNELS 3 Xrotation Yrotation Zrotation
										JOINT LeftHandMiddle3
										{
											OFFSET 7.015945 0.000000 0.000000
											CHANNELS 3 Xrotation Yrotation Zrotation
											JOINT LeftHandMiddle4
											{
												OFFSET 7.721573 0.000000 0.000000
												CHANNELS 3 Xrotation Yrotation Zrotation
												End Site
												{
													OFFSET -4.651108 6.158463 0.251582
												}
											}
										}
									}
								}
								JOINT LeftHandIndex1
								{
									OFFSET 21.310577 -0.490082 6.209344
									CHANNELS 3 Xrotation Yrotation Zrotation
									JOINT LeftHandIndex2
									{
										OFFSET 7.536453 0.000000 0.000000
										CHANNELS 3 Xrotation Yrotation Zrotation
										JOINT LeftHandIndex3
										{
											OFFSET 7.512344 0.000000 0.000000
											CHANNELS 3 Xrotation Yrotation Zrotation
											JOINT LeftHandIndex4
											{
												OFFSET 10.212402 0.000000 0.000001
												CHANNELS 3 Xrotation Yrotation Zrotation
												End Site
												{
													OFFSET -5.180801 8.690506 1.388433
												}
											}
										}
									}
								}
							}
						}
					}
				}
				JOINT RightShoulder
				{
					OFFSET -17.399500 24.608795 1.168800
					CHANNELS 3 Xrotation Yrotation Zrotation
					JOINT RightArm
					{
						OFFSET -18.980635 5.765305 1.818600
						CHANNELS 3 Xrotation Yrotation Zrotation
						JOINT RightForeArm
						{
							OFFSET -49.290169 0.000000 0.000000
							CHANNELS 3 Xrotation Yrotation Zrotation
							JOINT RightHand
							{
								OFFSET -31.562012 0.000000 0.000000
								CHANNELS 3 Xrotation Yrotation Zrotation
								JOINT RightHandThumb1
								{
									OFFSET -6.133995 -4.388519 7.076070
									CHANNELS 3 Xrotation Yrotation Zrotation
									JOINT RightHandThumb2
									{
										OFFSET -6.037666 -3.485840 3.485847
										CHANNELS 3 Xrotation Yrotation Zrotation
										JOINT RightHandThumb3
										{
											OFFSET -6.496506 -3.750763 3.750761
											CHANNELS 3 Xrotation Yrotation Zrotation
											JOINT RightHandThumb4
											{
												OFFSET -5.616882 -3.242905 3.242910
												CHANNELS 3 Xrotation Yrotation Zrotation
												End Site
												{
													OFFSET 1.254608 7.132141 0.375429
												}
											}
										}
									}
								}
								JOINT RightHandIndex1
								{
									OFFSET -21.310577 -0.490082 6.209344
									CHANNELS 3 Xrotation Yrotation Zrotation
									JOINT RightHandIndex2
									{
										OFFSET -7.536453 0.000000 0.000000
										CHANNELS 3 Xrotation Yrotation Zrotation
										JOINT RightHandIndex3
										{
											OFFSET -7.512344 0.000000 0.000000
											CHANNELS 3 Xrotation Yrotation Zrotation
											JOINT RightHandIndex4
											{
												OFFSET -10.212402 0.000000 0.000001
												CHANNELS 3 Xrotation Yrotation Zrotation
												End Site
												{
													OFFSET 5.180801 8.690506 1.388433
												}
											}
										}
									}
								}
								JOINT RightHandMiddle1
								{
									OFFSET -23.373947 0.000000 0.000001
									CHANNELS 3 Xrotation Yrotation Zrotation
									JOINT RightHandMiddle2
									{
										OFFSET -6.996567 0.000000 0.000000
										CHANNELS 3 Xrotation Yrotation Zrotation
										JOINT RightHandMiddle3
										{
											OFFSET -7.015945 0.000000 0.000000
											CHANNELS 3 Xrotation Yrotation Zrotation
											JOINT RightHandMiddle4
											{
												OFFSET -7.721573 0.000000 0.000000
												CHANNELS 3 Xrotation Yrotation Zrotation
												End Site
												{
													OFFSET 4.651108 6.158463 0.251582
												}
											}
										}
									}
								}
								JOINT RightHandRing1
								{
									OFFSET -22.726120 -0.094986 -6.500475
									CHANNELS 3 Xrotation Yrotation Zrotation
									JOINT RightHandRing2
									{
										OFFSET -6.408615 0.000000 0.000000
										CHANNELS 3 Xrotation Yrotation Zrotation
										JOINT RightHandRing3
										{
											OFFSET -6.150223 0.000000 0.000000
											CHANNELS 3 Xrotation Yrotation Zrotation
											JOINT RightHandRing4
											{
												OFFSET -6.145386 0.000000 0.000000
												CHANNELS 3 Xrotation Yrotation Zrotation
												End Site
												{
													OFFSET 3.671402 4.923981 -0.202372
												}
											}
										}
									}
								}
								JOINT RightHandPinky1
								{
									OFFSET -18.920792 -0.453171 -11.426712
									CHANNELS 3 Xrotation Yrotation Zrotation
									JOINT RightHandPinky2
									{
										OFFSET -4.919586 0.000000 0.000000
										CHANNELS 3 Xrotation Yrotation Zrotation
										JOINT RightHandPinky3
										{
											OFFSET -5.233047 0.000000 0.000000
											CHANNELS 3 Xrotation Yrotation Zrotation
											JOINT RightHandPinky4
											{
												OFFSET -5.571716 0.000000 0.000000
												CHANNELS 3 Xrotation Yrotation Zrotation
												End Site
												{
													OFFSET 3.459808 4.342407 -0.466164
												}
											}
										}
									}
								}
							}
						}
					}
				}
			}
		}
	}
	JOINT LeftUpLeg
	{
		OFFSET 19.899099 -7.885101 -3.429500
		CHANNELS 3 Xrotation Yrotation Zrotation
		JOINT LeftLeg
		{
			OFFSET 1.745560 -36.997807 10.304700
			CHANNELS 3 Xrotation Yrotation Zrotation
			JOINT LeftFoot
			{
				OFFSET -1.745558 -29.803308 -13.615400
				CHANNELS 3 Xrotation Yrotation Zrotation
				JOINT LeftToeBase
				{
					OFFSET 1.181900 -18.539904 15.226099
					CHANNELS 3 Xrotation Yrotation Zrotation
					JOINT LeftToe_End
					{
						OFFSET -0.863701 1.402801 16.534700
						CHANNELS 3 Xrotation Yrotation Zrotation
						End Site
						{
							OFFSET 0.000000 16.616566 0.000000
						}
					}
				}
			}
		}
	}
	JOINT RightUpLeg
	{
		OFFSET -19.899099 -7.885101 -3.429500
		CHANNELS 3 Xrotation Yrotation Zrotation
		JOINT RightLeg
		{
			OFFSET -1.745560 -36.997807 10.304700
			CHANNELS 3 Xrotation Yrotation Zrotation
			JOINT RightFoot
			{
				OFFSET 1.745558 -29.803308 -13.615400
				CHANNELS 3 Xrotation Yrotation Zrotation
				JOINT RightToeBase
				{
					OFFSET -1.181900 -18.539904 15.226099
					CHANNELS 3 Xrotation Yrotation Zrotation
					JOINT RightToe_End
					{
						OFFSET 0.863701 1.402801 16.534700
						CHANNELS 3 Xrotation Yrotation Zrotation
						End Site
						{
							OFFSET 0.000000 16.616566 0.000000
						}
					}
				}
			}
		}
	}
}
MOTION
Frames: 4
Frame Time: 0.033333
3.402924 68.032753 2.450108 37.760902 43.831028 -26.686177 10.746337 -3.856688 2.837868 2.651668 -1.130319 1.074707 2.687681 -1.043759 1.079769 -1.644820 -9.337364 6.513679 -36.706926 -29.285348 0.157811 0.000000 0.000000 0.000000 9.633846 -6.119155 -4.853721 -6.957416 -24.511321 -41.330499 0.000032 -110.284052 0.000010 14.900175 6.368311 17.291011 0.301383 4.151445 1.348171 7.475453 23.873060 2.329902 -7.305759 -0.431984 13.167719 -0.000002 -0.000001 -0.000001 3.263120 7.566628 -62.978394 3.416520 5.322118 -65.374520 1.975944 4.387231 -48.475523 0.000000 0.000001 -0.000000 3.063611 7.460894 -60.763487 3.213625 5.224736 -63.167065 1.810454 4.235336 -46.274269 -0.000001 -0.000001 0.000003 2.194563 6.870561 -50.444103 2.323877 4.671345 -52.879342 1.121336 3.448417 -36.017090 -0.000000 0.000001 0.000007 1.392130 6.069735 -39.308801 1.668967 4.095727 -44.326968 0.522158 2.419613 -24.351919 -0.000000 0.000003 0.000001 12.530442 -11.275723 25.504731 -19.519714 9.478000 57.622187 0.000045 72.634868 -0.000022 13.524393 13.670397 -12.924139 -2.911984 -0.680673 -4.830551 7.558421 -24.573730 -2.891219 -5.485706 -5.504909 -14.731676 0.000004 -0.000007 0.000001 0.821860 -4.851532 33.461493 1.294756 -3.224175 43.749657 0.278632 -1.588241 19.899213 -0.000001 -0.000003 -0.000001 1.315204 -5.472602 43.238967 1.852491 -3.719414 52.939936 0.643790 -2.364574 30.457166 0.000003 0.000005 -0.000008 1.918719 -6.009151 53.197021 2.110133 -3.900213 56.815518 1.178722 -3.098588 41.645856 -0.000000 -0.000000 -0.000005 2.048784 -6.102489 55.168524 2.246347 -3.985774 58.796638 1.287684 -3.216763 43.623626 0.000002 0.000000 0.000000 -29.678343 6.988240 41.811164 39.347562 -7.183048 -10.220247 -27.364810 13.103788 -31.071015 0.047686 0.000007 0.000002 0.000000 0.000000 0.000000 -71.073412 9.820053 -38.361556 46.326735 1.523544 4.210774 8.384484 3.098326 26.994883 -2.554543 0.000015 -0.000421 0.000000 0.000002 0.000000 
3.445747 68.201202 2.640652 37.584601 43.680006 -26.392838 10.708671 -3.857974 2.669124 2.651675 -1.038860 1.010024 2.687683 -0.952681 1.009436 -3.056148 -8.712045 5.703558 -36.395848 -30.616183 0.073611 0.000000 -0.000000 0.000000 8.863691 -4.746951 -5.518052 -3.165215 -25.454971 -37.369881 -0.000008 -113.492746 -0.000031 11.730875 1.693440 17.146729 -0.532687 3.991020 2.726630 7.475453 23.873074 2.329927 -7.305751 -0.431991 13.167722 0.000000 0.000001 -0.000001 2.763384 7.282323 -57.336686 2.801371 4.995775 -58.541312 1.736798 4.163835 -45.268844 0.000000 0.000002 -0.000002 2.575451 7.157656 -55.124230 2.611604 4.875065 -56.336193 1.580143 4.002975 -43.068864 -0.000003 0.000000 -0.000000 1.769602 6.485554 -44.817533 1.794702 4.220257 -46.060415 0.936335 3.178855 -32.817553 -0.000003 -0.000001 0.000001 1.050493 5.610503 -33.696930 1.213261 3.571220 -37.518595 0.395663 2.118296 -21.158058 0.000003 0.000001 0.000001 11.022039 -8.767467 26.773228 -16.870229 7.149783 53.384741 0.000046 75.312644 -0.000046 12.668096 12.372528 -12.659721 -3.601655 0.943652 -5.746272 7.476869 -23.865714 -2.842394 -5.485704 -5.504910 -14.731699 0.000001 -0.000002 -0.000000 0.418356 -4.180067 30.467971 1.136422 -3.050472 40.857399 0.224850 -1.431015 17.858202 0.000001 -0.000003 -0.000002 1.022464 -5.136080 39.868340 1.638278 -3.547846 49.560915 0.534548 -2.168264 27.695369 -0.000000 -0.000001 -0.000002 1.898680 -6.004944 49.480848 1.853998 -3.720518 52.962967 1.032149 -2.925698 38.856748 -0.000001 0.000000 -0.000002 2.289342 -6.338207 51.324558 1.971438 -3.806134 54.752453 1.125066 -3.037293 40.643372 0.000001 -0.000001 -0.000001 -29.479851 7.452394 41.257573 39.268086 -6.873004 -9.457744 -27.408668 13.212686 -30.956490 -1.131472 -0.000018 -0.000004 0.000000 -0.000001 0.000000 -70.759134 10.272944 -37.789364 46.142323 1.681703 3.924382 8.302794 2.435956 27.541696 -2.392007 0.004532 -0.233416 0.000000 0.000002 -0.000000 
3.483519 68.369446 2.914320 37.346593 43.397987 -26.025804 10.580040 -3.925160 2.422874 2.661438 -0.898984 0.914197 2.698818 -0.812263 0.902262 -4.513292 -7.539043 4.628741 -35.382586 -31.942097 0.173620 0.000000 0.000000 -0.000000 8.168640 -3.284580 -7.196076 0.853703 -28.756042 -32.624238 0.000031 -116.375632 0.000001 10.591676 -3.887970 18.042829 -1.500384 3.778643 4.331543 7.475445 23.873055 2.329891 -7.305759 -0.431976 13.167728 -0.000003 -0.000003 -0.000003 2.219696 6.891035 -50.762092 2.139333 4.526215 -50.577780 1.474255 3.886874 -41.529603 0.000000 0.000004 -0.000007 2.047534 6.745843 -48.552854 1.968331 4.380482 -48.375699 1.328452 3.716135 -39.331132 -0.000004 -0.000002 0.000005 1.324996 5.986682 -38.261753 1.250635 3.619270 -38.114648 0.739982 2.851935 -29.086422 -0.000000 0.000004 0.000009 0.711509 5.035814 -27.157969 0.764987 2.896342 -29.584715 0.269607 1.758485 -17.432997 -0.000001 0.000001 0.000001 9.138199 -5.831062 28.289689 -13.346430 5.538198 49.314287 -0.000114 78.829720 0.000095 11.606813 10.987934 -13.275036 -4.105358 2.755406 -6.488179 7.381285 -23.038365 -2.784282 -5.485708 -5.504902 -14.731678 -0.000000 -0.000004 0.000002 0.040556 -3.392671 27.153926 0.958046 -2.831418 37.381878 0.173357 -1.260126 15.665971 -0.000000 0.000000 -0.000001 0.717878 -4.718009 36.124621 1.392874 -3.323460 45.467603 0.425464 -1.946512 24.657738 -0.000000 -0.000001 -0.000004 1.838102 -5.992320 45.250662 1.567187 -3.486124 48.402204 0.868905 -2.710895 35.537925 -0.000001 -0.000005 -0.000002 2.466533 -6.624531 46.996636 1.660601 -3.566703 49.920545 0.941936 -2.810207 37.054046 0.000003 -0.000001 -0.000001 -29.136358 7.933944 40.314799 39.261710 -6.334334 -7.890167 -27.431817 13.721666 -31.337769 -2.696110 0.000023 -0.000003 -0.000000 -0.000000 0.000000 -70.534216 10.778737 -37.007068 46.276714 1.898819 3.522069 7.620735 1.511172 28.120177 -1.771061 -0.000009 0.000003 -0.000000 -0.000000 0.000000 
3.512272 68.444160 3.282310 36.972511 42.889107 -25.597437 10.328394 -4.150835 2.031997 2.688904 -0.719762 0.771408 2.725539 -0.629503 0.739871 -5.986215 -5.980917 3.570901 -33.487649 -32.865494 0.575898 0.000000 -0.000000 0.000000 7.617711 -2.048493 -9.326990 3.612071 -36.986912 -28.664822 0.000018 -116.317958 -0.000006 12.456157 -7.729078 20.434999 -2.434163 3.546559 5.886505 7.475470 23.873067 2.329917 -7.305763 -0.431981 13.167711 0.000000 0.000001 -0.000001 1.738525 6.454227 -44.384769 1.565073 3.986848 -42.852723 1.237106 3.601994 -37.899712 -0.000002 0.000001 -0.000000 1.583801 6.290959 -42.178798 1.415403 3.819513 -40.653723 1.102481 3.422395 -35.702652 -0.000001 0.000003 0.000002 0.951012 5.456846 -31.903038 0.807037 2.969108 -30.406728 0.570106 2.522776 -25.464028 0.000000 -0.000002 0.000004 0.447406 4.444271 -20.814716 0.423052 2.187691 -21.887128 0.169841 1.401850 -13.815839 -0.000002 -0.000000 -0.000001 7.094269 -3.336527 29.619313 -9.024294 6.428025 46.263060 0.000022 82.692458 -0.000002 10.461180 10.204351 -14.729568 -4.471743 4.683138 -7.063849 7.274900 -22.121162 -2.718500 -5.485714 -5.504921 -14.731683 -0.000001 0.000000 0.000001 -0.278513 -2.507540 23.620242 0.773176 -2.571757 33.460885 0.126745 -1.080238 13.383487 0.000000 -0.000001 0.000001 0.427899 -4.228185 32.122346 1.134672 -3.048442 40.824536 0.322773 -1.705237 21.435422 -0.000002 -0.000003 -0.000009 1.742068 -5.974525 40.644052 1.270115 -3.198267 43.309649 0.701190 -2.459475 31.821097 -0.000005 0.000001 0.000002 2.567781 -6.961996 42.312038 1.337135 -3.267788 44.497928 0.752964 -2.540949 33.007907 -0.000000 -0.000002 0.000002 -28.304381 8.185782 39.577958 39.274482 -5.446195 -6.540718 -27.597576 14.416135 -31.925592 -4.369653 -0.000030 -0.000006 0.000000 -0.000001 0.000000 -70.679658 11.392836 -35.518930 47.087570 2.138446 2.849583 6.289176 0.225248 27.957670 -2.870066 0.000011 -0.000004 0.000000 0.000000 0.000000 
